<svg xmlns="http://www.w3.org/2000/svg" viewBox="0 0 800 420" font-family="Segoe UI, sans-serif">
<rect width="800" height="420" fill="#ffffff" rx="8"/>
<text x="64" y="30" fill="#1f2328" font-size="17" font-weight="700">★ Star History — timoncool/YuE2-Studio</text>
<text x="776" y="30" fill="#1f2328" font-size="14" text-anchor="end">95 stars · updated 2026-09-24</text>
<line x1="64" y1="364.0" x2="776" y2="364.0" stroke="#d1d9e0" stroke-width="1"/><text x="54" y="368.0" fill="#1f2328" font-size="13" text-anchor="end">0</text><line x1="64" y1="284.2" x2="776" y2="284.2" stroke="#d1d9e0" stroke-width="1"/><text x="54" y="288.2" fill="#1f2328" font-size="13" text-anchor="end">24</text><line x1="64" y1="204.3" x2="776" y2="204.3" stroke="#d1d9e0" stroke-width="1"/><text x="54" y="208.3" fill="#1f2328" font-size="13" text-anchor="end">48</text><line x1="64" y1="127.8" x2="776" y2="127.8" stroke="#d1d9e0" stroke-width="1"/><text x="54" y="131.8" fill="#1f2328" font-size="13" text-anchor="end">71</text><line x1="64" y1="48.0" x2="776" y2="48.0" stroke="#d1d9e0" stroke-width="1"/><text x="54" y="52.0" fill="#1f2328" font-size="13" text-anchor="end">95</text>
<path d="M64.0,364.0 L64.0,360.7 L118.9,357.3 L254.4,354.0 L254.6,350.7 L255.2,347.4 L255.3,344.0 L255.5,340.7 L256.7,337.4 L258.8,334.1 L259.4,330.7 L263.4,327.4 L270.5,324.1 L272.3,320.8 L289.2,317.4 L290.9,314.1 L291.3,310.8 L292.4,307.5 L303.1,304.1 L316.0,300.8 L319.9,297.5 L320.8,294.1 L324.0,290.8 L325.0,287.5 L328.4,284.2 L332.9,280.8 L333.3,277.5 L333.8,274.2 L341.9,270.9 L345.2,267.5 L346.1,264.2 L346.1,260.9 L352.8,257.6 L353.2,254.2 L355.7,250.9 L361.2,247.6 L363.3,244.3 L363.8,240.9 L369.2,237.6 L384.0,234.3 L385.4,230.9 L385.7,227.6 L392.2,224.3 L398.8,221.0 L402.6,217.6 L411.3,214.3 L434.8,211.0 L439.3,207.7 L477.5,204.3 L482.0,201.0 L498.1,197.7 L513.9,194.4 L517.2,191.0 L522.4,187.7 L536.1,184.4 L538.6,181.1 L546.6,177.7 L568.0,174.4 L591.5,171.1 L596.6,167.7 L597.7,164.4 L606.2,161.1 L607.1,157.8 L611.5,154.4 L611.9,151.1 L612.7,147.8 L618.5,144.5 L618.7,141.1 L622.3,137.8 L623.3,134.5 L633.0,131.2 L639.2,127.8 L649.8,124.5 L654.2,121.2 L670.6,117.9 L675.3,114.5 L680.2,111.2 L697.2,107.9 L701.8,104.5 L713.7,101.2 L716.1,97.9 L719.4,94.6 L721.1,91.2 L728.1,87.9 L729.5,84.6 L734.7,81.3 L750.4,77.9 L750.7,74.6 L752.7,71.3 L754.6,68.0 L755.7,64.6 L761.9,61.3 L771.1,58.0 L772.5,54.7 L774.2,51.3 L776.0,48.0 L776.0,48.0" fill="none" stroke="#0969da" stroke-width="2.5" stroke-linejoin="round"/>
<circle cx="776.0" cy="48.0" r="4" fill="#0969da"/>
<text x="64.0" y="388" fill="#1f2328" font-size="13" text-anchor="middle">Sep 23, 2026</text><text x="301.3" y="388" fill="#1f2328" font-size="13" text-anchor="middle">Sep 23, 2026</text><text x="538.7" y="388" fill="#1f2328" font-size="13" text-anchor="middle">Sep 24, 2026</text><text x="776.0" y="388" fill="#1f2328" font-size="13" text-anchor="middle">Sep 24, 2026</text>
</svg>