<svg xmlns="http://www.w3.org/2000/svg" viewBox="0 0 800 420" font-family="Segoe UI, sans-serif">
<rect width="800" height="420" fill="#0d1117" rx="8"/>
<text x="64" y="30" fill="#e6edf3" font-size="17" font-weight="700">★ Star History — timoncool/YuE2-Studio</text>
<text x="776" y="30" fill="#e6edf3" font-size="14" text-anchor="end">153 stars · updated 2026-09-26</text>
<line x1="64" y1="364.0" x2="776" y2="364.0" stroke="#30363d" stroke-width="1"/><text x="54" y="368.0" fill="#e6edf3" font-size="13" text-anchor="end">0</text><line x1="64" y1="285.5" x2="776" y2="285.5" stroke="#30363d" stroke-width="1"/><text x="54" y="289.5" fill="#e6edf3" font-size="13" text-anchor="end">38</text><line x1="64" y1="207.0" x2="776" y2="207.0" stroke="#30363d" stroke-width="1"/><text x="54" y="211.0" fill="#e6edf3" font-size="13" text-anchor="end">76</text><line x1="64" y1="126.5" x2="776" y2="126.5" stroke="#30363d" stroke-width="1"/><text x="54" y="130.5" fill="#e6edf3" font-size="13" text-anchor="end">115</text><line x1="64" y1="48.0" x2="776" y2="48.0" stroke="#30363d" stroke-width="1"/><text x="54" y="52.0" fill="#e6edf3" font-size="13" text-anchor="end">153</text>
<path d="M64.0,364.0 L64.0,361.9 L93.8,359.9 L167.3,357.8 L167.4,355.7 L167.7,353.7 L167.8,351.6 L167.8,349.5 L168.5,347.5 L169.6,345.4 L170.0,343.3 L172.2,341.3 L176.0,339.2 L177.0,337.2 L186.1,335.1 L187.1,333.0 L187.3,331.0 L187.9,328.9 L193.7,326.8 L200.7,324.8 L202.8,322.7 L203.3,320.6 L205.0,318.6 L205.6,316.5 L207.4,314.4 L209.8,312.4 L210.1,310.3 L210.3,308.2 L214.7,306.2 L216.5,304.1 L217.0,302.0 L217.0,300.0 L220.6,297.9 L220.9,295.8 L222.2,293.8 L225.2,291.7 L226.4,289.6 L226.6,287.6 L229.5,285.5 L237.5,283.5 L238.3,281.4 L238.5,279.3 L242.0,277.3 L245.6,275.2 L247.7,273.1 L252.4,271.1 L265.1,269.0 L267.6,266.9 L288.3,264.9 L290.7,262.8 L299.5,260.7 L308.0,258.7 L309.8,256.6 L312.6,254.5 L320.0,252.5 L321.4,250.4 L325.8,248.3 L337.4,246.3 L350.1,244.2 L352.9,242.1 L353.5,240.1 L358.1,238.0 L358.6,235.9 L361.0,233.9 L361.2,231.8 L361.6,229.8 L364.8,227.7 L364.9,225.6 L366.8,223.6 L367.4,221.5 L372.6,219.4 L376.0,217.4 L381.7,215.3 L384.1,213.2 L393.0,211.2 L395.6,209.1 L398.2,207.0 L407.5,205.0 L410.0,202.9 L416.4,200.8 L417.7,198.8 L419.5,196.7 L420.4,194.6 L424.2,192.6 L425.0,190.5 L427.8,188.4 L436.3,186.4 L436.5,184.3 L437.6,182.2 L438.6,180.2 L439.2,178.1 L442.5,176.1 L447.6,174.0 L448.3,171.9 L449.2,169.9 L450.2,167.8 L453.7,165.7 L457.1,163.7 L457.2,161.6 L457.8,159.5 L458.3,157.5 L461.5,155.4 L469.8,153.3 L477.0,151.3 L479.4,149.2 L489.1,147.1 L491.9,145.1 L503.3,143.0 L506.2,140.9 L511.1,138.9 L516.5,136.8 L529.9,134.7 L531.7,132.7 L537.7,130.6 L550.3,128.5 L552.3,126.5 L552.6,124.4 L562.4,122.4 L563.2,120.3 L564.7,118.2 L567.5,116.2 L572.7,114.1 L578.3,112.0 L580.2,110.0 L582.6,107.9 L583.7,105.8 L591.7,103.8 L598.3,101.7 L599.0,99.6 L608.4,97.6 L612.0,95.5 L618.3,93.4 L620.2,91.4 L620.6,89.3 L643.3,87.2 L645.3,85.2 L645.7,83.1 L646.8,81.0 L655.0,79.0 L657.7,76.9 L658.7,74.8 L662.1,72.8 L669.4,70.7 L669.8,68.7 L677.3,66.6 L695.9,64.5 L700.5,62.5 L706.3,60.4 L717.0,58.3 L721.1,56.3 L746.0,54.2 L771.4,52.1 L774.2,50.1 L776.0,48.0 L776.0,48.0" fill="none" stroke="#4f8ff7" stroke-width="2.5" stroke-linejoin="round"/>
<circle cx="776.0" cy="48.0" r="4" fill="#4f8ff7"/>
<text x="64.0" y="388" fill="#e6edf3" font-size="13" text-anchor="middle">Sep 23, 2026</text><text x="301.3" y="388" fill="#e6edf3" font-size="13" text-anchor="middle">Sep 24, 2026</text><text x="538.7" y="388" fill="#e6edf3" font-size="13" text-anchor="middle">Sep 25, 2026</text><text x="776.0" y="388" fill="#e6edf3" font-size="13" text-anchor="middle">Sep 26, 2026</text>
</svg>