<svg xmlns="http://www.w3.org/2000/svg" viewBox="0 0 800 420" font-family="Segoe UI, sans-serif">
<rect width="800" height="420" fill="#ffffff" rx="8"/>
<text x="64" y="30" fill="#1f2328" font-size="17" font-weight="700">★ Star History — timoncool/YuE2-Studio</text>
<text x="776" y="30" fill="#1f2328" font-size="14" text-anchor="end">118 stars · updated 2026-09-25</text>
<line x1="64" y1="364.0" x2="776" y2="364.0" stroke="#d1d9e0" stroke-width="1"/><text x="54" y="368.0" fill="#1f2328" font-size="13" text-anchor="end">0</text><line x1="64" y1="283.7" x2="776" y2="283.7" stroke="#d1d9e0" stroke-width="1"/><text x="54" y="287.7" fill="#1f2328" font-size="13" text-anchor="end">30</text><line x1="64" y1="206.0" x2="776" y2="206.0" stroke="#d1d9e0" stroke-width="1"/><text x="54" y="210.0" fill="#1f2328" font-size="13" text-anchor="end">59</text><line x1="64" y1="128.3" x2="776" y2="128.3" stroke="#d1d9e0" stroke-width="1"/><text x="54" y="132.3" fill="#1f2328" font-size="13" text-anchor="end">88</text><line x1="64" y1="48.0" x2="776" y2="48.0" stroke="#d1d9e0" stroke-width="1"/><text x="54" y="52.0" fill="#1f2328" font-size="13" text-anchor="end">118</text>
<path d="M64.0,364.0 L64.0,361.3 L106.5,358.6 L211.3,356.0 L211.5,353.3 L211.9,350.6 L212.0,347.9 L212.1,345.3 L213.0,342.6 L214.7,339.9 L215.2,337.2 L218.3,334.5 L223.7,331.9 L225.1,329.2 L238.2,326.5 L239.6,323.8 L239.8,321.2 L240.7,318.5 L249.0,315.8 L258.9,313.1 L262.0,310.4 L262.7,307.8 L265.2,305.1 L265.9,302.4 L268.5,299.7 L272.0,297.1 L272.4,294.4 L272.7,291.7 L279.0,289.0 L281.5,286.3 L282.2,283.7 L282.3,281.0 L287.4,278.3 L287.7,275.6 L289.7,272.9 L294.0,270.3 L295.6,267.6 L295.9,264.9 L300.1,262.2 L311.5,259.6 L312.6,256.9 L312.9,254.2 L317.9,251.5 L323.0,248.8 L325.9,246.2 L332.6,243.5 L350.8,240.8 L354.3,238.1 L383.9,235.5 L387.3,232.8 L399.9,230.1 L412.1,227.4 L414.6,224.7 L418.6,222.1 L429.2,219.4 L431.1,216.7 L437.3,214.0 L453.9,211.4 L472.1,208.7 L476.0,206.0 L476.9,203.3 L483.4,200.6 L484.1,198.0 L487.6,195.3 L487.9,192.6 L488.5,189.9 L493.0,187.3 L493.1,184.6 L495.9,181.9 L496.7,179.2 L504.2,176.5 L509.0,173.9 L517.2,171.2 L520.6,168.5 L533.2,165.8 L536.9,163.2 L540.7,160.5 L553.9,157.8 L557.4,155.1 L566.6,152.4 L568.5,149.8 L571.0,147.1 L572.3,144.4 L577.8,141.7 L578.8,139.1 L582.9,136.4 L595.0,133.7 L595.3,131.0 L596.8,128.3 L598.3,125.7 L599.1,123.0 L603.9,120.3 L611.0,117.6 L612.1,114.9 L613.4,112.3 L614.8,109.6 L619.8,106.9 L624.6,104.2 L624.8,101.6 L625.7,98.9 L626.3,96.2 L631.0,93.5 L642.8,90.8 L653.0,88.2 L656.4,85.5 L670.3,82.8 L674.3,80.1 L690.5,77.5 L694.7,74.8 L701.7,72.1 L709.3,69.4 L728.4,66.7 L731.1,64.1 L739.6,61.4 L757.6,58.7 L760.4,56.0 L760.8,53.4 L774.9,50.7 L776.0,48.0 L776.0,48.0" fill="none" stroke="#0969da" stroke-width="2.5" stroke-linejoin="round"/>
<circle cx="776.0" cy="48.0" r="4" fill="#0969da"/>
<text x="64.0" y="388" fill="#1f2328" font-size="13" text-anchor="middle">Sep 23, 2026</text><text x="301.3" y="388" fill="#1f2328" font-size="13" text-anchor="middle">Sep 23, 2026</text><text x="538.7" y="388" fill="#1f2328" font-size="13" text-anchor="middle">Sep 24, 2026</text><text x="776.0" y="388" fill="#1f2328" font-size="13" text-anchor="middle">Sep 25, 2026</text>
</svg>