<svg xmlns="http://www.w3.org/2000/svg" viewBox="0 0 800 420" font-family="Segoe UI, sans-serif">
<rect width="800" height="420" fill="#ffffff" rx="8"/>
<text x="64" y="30" fill="#1f2328" font-size="17" font-weight="700">★ Star History — timoncool/YuE2-Studio</text>
<text x="776" y="30" fill="#1f2328" font-size="14" text-anchor="end">136 stars · updated 2026-09-25</text>
<line x1="64" y1="364.0" x2="776" y2="364.0" stroke="#d1d9e0" stroke-width="1"/><text x="54" y="368.0" fill="#1f2328" font-size="13" text-anchor="end">0</text><line x1="64" y1="285.0" x2="776" y2="285.0" stroke="#d1d9e0" stroke-width="1"/><text x="54" y="289.0" fill="#1f2328" font-size="13" text-anchor="end">34</text><line x1="64" y1="206.0" x2="776" y2="206.0" stroke="#d1d9e0" stroke-width="1"/><text x="54" y="210.0" fill="#1f2328" font-size="13" text-anchor="end">68</text><line x1="64" y1="127.0" x2="776" y2="127.0" stroke="#d1d9e0" stroke-width="1"/><text x="54" y="131.0" fill="#1f2328" font-size="13" text-anchor="end">102</text><line x1="64" y1="48.0" x2="776" y2="48.0" stroke="#d1d9e0" stroke-width="1"/><text x="54" y="52.0" fill="#1f2328" font-size="13" text-anchor="end">136</text>
<path d="M64.0,364.0 L64.0,361.7 L100.5,359.4 L190.4,357.0 L190.6,354.7 L191.0,352.4 L191.0,350.1 L191.1,347.7 L191.9,345.4 L193.3,343.1 L193.7,340.8 L196.4,338.4 L201.1,336.1 L202.3,333.8 L213.5,331.5 L214.7,329.1 L214.9,326.8 L215.7,324.5 L222.8,322.2 L231.3,319.9 L233.9,317.5 L234.5,315.2 L236.6,312.9 L237.3,310.6 L239.5,308.2 L242.5,305.9 L242.8,303.6 L243.1,301.3 L248.5,298.9 L250.7,296.6 L251.3,294.3 L251.3,292.0 L255.7,289.6 L256.0,287.3 L257.7,285.0 L261.3,282.7 L262.7,280.4 L263.1,278.0 L266.6,275.7 L276.4,273.4 L277.4,271.1 L277.6,268.7 L281.9,266.4 L286.3,264.1 L288.8,261.8 L294.5,259.4 L310.2,257.1 L313.2,254.8 L338.5,252.5 L341.5,250.1 L352.2,247.8 L362.7,245.5 L364.9,243.2 L368.3,240.9 L377.4,238.5 L379.1,236.2 L384.4,233.9 L398.6,231.6 L414.2,229.2 L417.6,226.9 L418.3,224.6 L423.9,222.3 L424.6,219.9 L427.5,217.6 L427.8,215.3 L428.3,213.0 L432.1,210.6 L432.3,208.3 L434.7,206.0 L435.4,203.7 L441.8,201.4 L445.9,199.0 L452.9,196.7 L455.8,194.4 L466.7,192.1 L469.8,189.7 L473.1,187.4 L484.4,185.1 L487.5,182.8 L495.3,180.4 L497.0,178.1 L499.1,175.8 L500.2,173.5 L504.9,171.1 L505.8,168.8 L509.3,166.5 L519.7,164.2 L519.9,161.9 L521.2,159.5 L522.5,157.2 L523.3,154.9 L527.3,152.6 L533.5,150.2 L534.4,147.9 L535.5,145.6 L536.7,143.3 L541.0,140.9 L545.1,138.6 L545.3,136.3 L546.1,134.0 L546.6,131.6 L550.6,129.3 L560.7,127.0 L569.5,124.7 L572.4,122.4 L584.3,120.0 L587.8,117.7 L601.7,115.4 L605.2,113.1 L611.2,110.7 L617.8,108.4 L634.2,106.1 L636.5,103.8 L643.8,101.4 L659.2,99.1 L661.6,96.8 L662.0,94.5 L674.1,92.1 L675.0,89.8 L676.8,87.5 L680.3,85.2 L686.6,82.9 L693.5,80.5 L695.8,78.2 L698.8,75.9 L700.1,73.6 L709.8,71.2 L718.0,68.9 L718.8,66.6 L730.4,64.3 L734.7,61.9 L742.5,59.6 L744.8,57.3 L745.3,55.0 L773.1,52.6 L775.5,50.3 L776.0,48.0 L776.0,48.0" fill="none" stroke="#0969da" stroke-width="2.5" stroke-linejoin="round"/>
<circle cx="776.0" cy="48.0" r="4" fill="#0969da"/>
<text x="64.0" y="388" fill="#1f2328" font-size="13" text-anchor="middle">Sep 23, 2026</text><text x="301.3" y="388" fill="#1f2328" font-size="13" text-anchor="middle">Sep 23, 2026</text><text x="538.7" y="388" fill="#1f2328" font-size="13" text-anchor="middle">Sep 24, 2026</text><text x="776.0" y="388" fill="#1f2328" font-size="13" text-anchor="middle">Sep 25, 2026</text>
</svg>